<mxfile host="app.diagrams.net" modified="2022-06-16T16:42:55.571Z" agent="5.0 (Windows NT 10.0; WOW64) AppleWebKit/537.36 (KHTML, like Gecko) Chrome/101.0.4951.80 Safari/537.36" etag="-LISvqfpmRWLe_GBghCj" version="20.0.1" type="github">
  <diagram name="Page-1" id="74e2e168-ea6b-b213-b513-2b3c1d86103e">
    <mxGraphModel dx="1333" dy="577" grid="1" gridSize="10" guides="1" tooltips="1" connect="1" arrows="1" fold="1" page="1" pageScale="1" pageWidth="1100" pageHeight="850" background="none" math="0" shadow="0">
      <root>
        <mxCell id="0" />
        <mxCell id="1" parent="0" />
        <mxCell id="4uQNx70Xx_RuzJzwthJp-14" value="" style="edgeStyle=orthogonalEdgeStyle;rounded=0;orthogonalLoop=1;jettySize=auto;html=1;" edge="1" parent="1" source="4uQNx70Xx_RuzJzwthJp-3" target="4uQNx70Xx_RuzJzwthJp-13">
          <mxGeometry relative="1" as="geometry" />
        </mxCell>
        <mxCell id="4uQNx70Xx_RuzJzwthJp-3" value="Lớp ứng dụng" style="label;whiteSpace=wrap;html=1;align=center;verticalAlign=bottom;spacingLeft=0;spacingBottom=4;imageAlign=center;imageVerticalAlign=top;image=img/clipart/Gear_128x128.png" vertex="1" parent="1">
          <mxGeometry x="60" y="110" width="120" height="80" as="geometry" />
        </mxCell>
        <mxCell id="4uQNx70Xx_RuzJzwthJp-11" value="" style="edgeStyle=orthogonalEdgeStyle;rounded=0;orthogonalLoop=1;jettySize=auto;html=1;" edge="1" parent="1" source="4uQNx70Xx_RuzJzwthJp-4" target="4uQNx70Xx_RuzJzwthJp-10">
          <mxGeometry relative="1" as="geometry" />
        </mxCell>
        <mxCell id="4uQNx70Xx_RuzJzwthJp-4" value="Lớp nghiệp vụ" style="label;whiteSpace=wrap;html=1;align=center;verticalAlign=bottom;spacingLeft=0;spacingBottom=4;imageAlign=center;imageVerticalAlign=top;image=img/clipart/Gear_128x128.png" vertex="1" parent="1">
          <mxGeometry x="60" y="20" width="120" height="80" as="geometry" />
        </mxCell>
        <mxCell id="4uQNx70Xx_RuzJzwthJp-20" value="" style="edgeStyle=orthogonalEdgeStyle;rounded=0;orthogonalLoop=1;jettySize=auto;html=1;" edge="1" parent="1" source="4uQNx70Xx_RuzJzwthJp-5" target="4uQNx70Xx_RuzJzwthJp-19">
          <mxGeometry relative="1" as="geometry" />
        </mxCell>
        <mxCell id="4uQNx70Xx_RuzJzwthJp-5" value="Lớp trung gian" style="label;whiteSpace=wrap;html=1;align=center;verticalAlign=bottom;spacingLeft=0;spacingBottom=4;imageAlign=center;imageVerticalAlign=top;image=img/clipart/Gear_128x128.png" vertex="1" parent="1">
          <mxGeometry x="60" y="200" width="120" height="80" as="geometry" />
        </mxCell>
        <mxCell id="4uQNx70Xx_RuzJzwthJp-27" value="" style="edgeStyle=orthogonalEdgeStyle;rounded=0;orthogonalLoop=1;jettySize=auto;html=1;" edge="1" parent="1" source="4uQNx70Xx_RuzJzwthJp-7" target="4uQNx70Xx_RuzJzwthJp-26">
          <mxGeometry relative="1" as="geometry" />
        </mxCell>
        <mxCell id="4uQNx70Xx_RuzJzwthJp-7" value="Lớp mạng" style="label;whiteSpace=wrap;html=1;align=center;verticalAlign=bottom;spacingLeft=0;spacingBottom=4;imageAlign=center;imageVerticalAlign=top;image=img/clipart/Gear_128x128.png" vertex="1" parent="1">
          <mxGeometry x="60" y="290" width="120" height="80" as="geometry" />
        </mxCell>
        <mxCell id="4uQNx70Xx_RuzJzwthJp-32" value="" style="edgeStyle=orthogonalEdgeStyle;rounded=0;orthogonalLoop=1;jettySize=auto;html=1;" edge="1" parent="1" source="4uQNx70Xx_RuzJzwthJp-9" target="4uQNx70Xx_RuzJzwthJp-31">
          <mxGeometry relative="1" as="geometry" />
        </mxCell>
        <mxCell id="4uQNx70Xx_RuzJzwthJp-9" value="Lớp cảm biến" style="label;whiteSpace=wrap;html=1;align=center;verticalAlign=bottom;spacingLeft=0;spacingBottom=4;imageAlign=center;imageVerticalAlign=top;image=img/clipart/Gear_128x128.png" vertex="1" parent="1">
          <mxGeometry x="60" y="385" width="120" height="80" as="geometry" />
        </mxCell>
        <mxCell id="4uQNx70Xx_RuzJzwthJp-10" value="" style="whiteSpace=wrap;html=1;verticalAlign=bottom;fontStyle=1;spacing=2;spacingLeft=0;rounded=1;spacingBottom=4;" vertex="1" parent="1">
          <mxGeometry x="200" y="20" width="350" height="80" as="geometry" />
        </mxCell>
        <mxCell id="4uQNx70Xx_RuzJzwthJp-13" value="" style="whiteSpace=wrap;html=1;verticalAlign=bottom;fontStyle=1;spacing=2;spacingLeft=0;rounded=1;spacingBottom=4;" vertex="1" parent="1">
          <mxGeometry x="200" y="110" width="350" height="80" as="geometry" />
        </mxCell>
        <mxCell id="4uQNx70Xx_RuzJzwthJp-15" value="" style="aspect=fixed;html=1;points=[];align=center;image;fontSize=12;image=img/lib/azure2/app_services/API_Management_Services.svg;" vertex="1" parent="1">
          <mxGeometry x="220" y="120" width="65" height="60" as="geometry" />
        </mxCell>
        <mxCell id="4uQNx70Xx_RuzJzwthJp-16" value="" style="aspect=fixed;html=1;points=[];align=center;image;fontSize=12;image=img/lib/azure2/app_services/App_Service_Domains.svg;" vertex="1" parent="1">
          <mxGeometry x="290" y="124" width="65" height="52" as="geometry" />
        </mxCell>
        <mxCell id="4uQNx70Xx_RuzJzwthJp-17" value="" style="aspect=fixed;html=1;points=[];align=center;image;fontSize=12;image=img/lib/azure2/app_services/App_Service_Certificates.svg;" vertex="1" parent="1">
          <mxGeometry x="380" y="120" width="70" height="64" as="geometry" />
        </mxCell>
        <mxCell id="4uQNx70Xx_RuzJzwthJp-19" value="" style="whiteSpace=wrap;html=1;verticalAlign=bottom;fontStyle=1;spacing=2;spacingLeft=0;rounded=1;spacingBottom=4;" vertex="1" parent="1">
          <mxGeometry x="200" y="200" width="350" height="80" as="geometry" />
        </mxCell>
        <mxCell id="4uQNx70Xx_RuzJzwthJp-21" value="" style="aspect=fixed;html=1;points=[];align=center;image;fontSize=12;image=img/lib/azure2/databases/SQL_Server.svg;" vertex="1" parent="1">
          <mxGeometry x="468" y="206" width="68" height="68" as="geometry" />
        </mxCell>
        <mxCell id="4uQNx70Xx_RuzJzwthJp-22" value="" style="aspect=fixed;html=1;points=[];align=center;image;fontSize=12;image=img/lib/azure2/compute/Disks.svg;" vertex="1" parent="1">
          <mxGeometry x="368" y="212" width="56.99999999999999" height="56.00000000000001" as="geometry" />
        </mxCell>
        <mxCell id="4uQNx70Xx_RuzJzwthJp-23" value="" style="aspect=fixed;html=1;points=[];align=center;image;fontSize=12;image=img/lib/azure2/databases/Virtual_Clusters.svg;" vertex="1" parent="1">
          <mxGeometry x="470" y="120" width="66" height="64" as="geometry" />
        </mxCell>
        <mxCell id="4uQNx70Xx_RuzJzwthJp-26" value="" style="whiteSpace=wrap;html=1;verticalAlign=bottom;fontStyle=1;spacing=2;spacingLeft=0;rounded=1;spacingBottom=4;" vertex="1" parent="1">
          <mxGeometry x="200" y="290" width="350" height="80" as="geometry" />
        </mxCell>
        <mxCell id="4uQNx70Xx_RuzJzwthJp-28" value="" style="aspect=fixed;html=1;points=[];align=center;image;fontSize=12;image=img/lib/azure2/security/Conditional_Access.svg;" vertex="1" parent="1">
          <mxGeometry x="394" y="302" width="56.00000000000001" height="68" as="geometry" />
        </mxCell>
        <mxCell id="4uQNx70Xx_RuzJzwthJp-29" value="" style="aspect=fixed;html=1;points=[];align=center;image;fontSize=12;image=img/lib/azure2/internet_of_things/Digital_Twins.svg;" vertex="1" parent="1">
          <mxGeometry x="290" y="296" width="68" height="69" as="geometry" />
        </mxCell>
        <mxCell id="4uQNx70Xx_RuzJzwthJp-31" value="" style="whiteSpace=wrap;html=1;verticalAlign=bottom;fontStyle=1;spacing=2;spacingLeft=0;rounded=1;spacingBottom=4;" vertex="1" parent="1">
          <mxGeometry x="200" y="385" width="350" height="80" as="geometry" />
        </mxCell>
        <mxCell id="4uQNx70Xx_RuzJzwthJp-38" value="" style="verticalLabelPosition=bottom;sketch=0;html=1;fillColor=#A153A0;strokeColor=#ffffff;verticalAlign=top;align=center;points=[[0,0.5,0],[0.125,0.25,0],[0.25,0,0],[0.5,0,0],[0.75,0,0],[0.875,0.25,0],[1,0.5,0],[0.875,0.75,0],[0.75,1,0],[0.5,1,0],[0.125,0.75,0]];pointerEvents=1;shape=mxgraph.cisco_safe.compositeIcon;bgIcon=mxgraph.cisco_safe.design.blank_device;resIcon=mxgraph.cisco_safe.design.sensor;" vertex="1" parent="1">
          <mxGeometry x="477" y="400" width="50" height="45" as="geometry" />
        </mxCell>
        <mxCell id="4uQNx70Xx_RuzJzwthJp-39" value="" style="aspect=fixed;perimeter=ellipsePerimeter;html=1;align=center;shadow=0;dashed=0;fontColor=#4277BB;labelBackgroundColor=#ffffff;fontSize=12;spacingTop=3;image;image=img/lib/ibm/users/sensor.svg;" vertex="1" parent="1">
          <mxGeometry x="345" y="395" width="60" height="60" as="geometry" />
        </mxCell>
        <mxCell id="4uQNx70Xx_RuzJzwthJp-40" value="" style="sketch=0;outlineConnect=0;fontColor=#232F3E;gradientColor=none;fillColor=#3F8624;strokeColor=none;dashed=0;verticalLabelPosition=bottom;verticalAlign=top;align=center;html=1;fontSize=12;fontStyle=0;aspect=fixed;pointerEvents=1;shape=mxgraph.aws4.iot_thing_temperature_humidity_sensor;" vertex="1" parent="1">
          <mxGeometry x="250" y="385" width="78" height="78" as="geometry" />
        </mxCell>
        <mxCell id="4uQNx70Xx_RuzJzwthJp-41" value="" style="sketch=0;outlineConnect=0;fontColor=#232F3E;gradientColor=none;fillColor=#3F8624;strokeColor=none;dashed=0;verticalLabelPosition=bottom;verticalAlign=top;align=center;html=1;fontSize=12;fontStyle=0;aspect=fixed;pointerEvents=1;shape=mxgraph.aws4.sensor;" vertex="1" parent="1">
          <mxGeometry x="407" y="383.5" width="70" height="78" as="geometry" />
        </mxCell>
        <mxCell id="4uQNx70Xx_RuzJzwthJp-42" value="" style="aspect=fixed;html=1;points=[];align=center;image;fontSize=12;image=img/lib/azure2/analytics/Stream_Analytics_Jobs.svg;" vertex="1" parent="1">
          <mxGeometry x="468" y="31" width="62" height="52.88" as="geometry" />
        </mxCell>
        <mxCell id="4uQNx70Xx_RuzJzwthJp-44" value="" style="aspect=fixed;html=1;points=[];align=center;image;fontSize=12;image=img/lib/azure2/management_governance/Diagnostics_Settings.svg;" vertex="1" parent="1">
          <mxGeometry x="220" y="26.5" width="56.00000000000001" height="67" as="geometry" />
        </mxCell>
        <mxCell id="4uQNx70Xx_RuzJzwthJp-45" value="" style="aspect=fixed;html=1;points=[];align=center;image;fontSize=12;image=img/lib/azure2/management_governance/Cost_Management_and_Billing.svg;" vertex="1" parent="1">
          <mxGeometry x="382" y="25.5" width="68" height="68" as="geometry" />
        </mxCell>
        <mxCell id="4uQNx70Xx_RuzJzwthJp-46" value="" style="aspect=fixed;html=1;points=[];align=center;image;fontSize=12;image=img/lib/azure2/management_governance/Managed_Applications_Center.svg;" vertex="1" parent="1">
          <mxGeometry x="300" y="31" width="68" height="54" as="geometry" />
        </mxCell>
        <mxCell id="4uQNx70Xx_RuzJzwthJp-47" value="" style="aspect=fixed;html=1;points=[];align=center;image;fontSize=12;image=img/lib/azure2/storage/Storage_Accounts_Classic.svg;" vertex="1" parent="1">
          <mxGeometry x="256.5" y="214" width="65" height="52" as="geometry" />
        </mxCell>
        <mxCell id="4uQNx70Xx_RuzJzwthJp-54" value="" style="edgeStyle=orthogonalEdgeStyle;rounded=0;orthogonalLoop=1;jettySize=auto;html=1;fontFamily=Times New Roman;fontSize=14;entryX=1;entryY=0.5;entryDx=0;entryDy=0;" edge="1" parent="1" source="4uQNx70Xx_RuzJzwthJp-53" target="4uQNx70Xx_RuzJzwthJp-13">
          <mxGeometry relative="1" as="geometry">
            <mxPoint x="560" y="152" as="targetPoint" />
          </mxGeometry>
        </mxCell>
        <mxCell id="4uQNx70Xx_RuzJzwthJp-53" value="&lt;font style=&quot;font-size: 14px;&quot; face=&quot;Times New Roman&quot;&gt;Ứng dụng quản lý mạng theo dõi sức khỏe, cảm biến hệ thống giao thông,...&lt;/font&gt;" style="text;html=1;strokeColor=none;fillColor=none;align=center;verticalAlign=middle;whiteSpace=wrap;rounded=0;" vertex="1" parent="1">
          <mxGeometry x="590" y="115" width="120" height="70" as="geometry" />
        </mxCell>
        <mxCell id="4uQNx70Xx_RuzJzwthJp-57" value="" style="edgeStyle=orthogonalEdgeStyle;rounded=0;orthogonalLoop=1;jettySize=auto;html=1;fontFamily=Times New Roman;fontSize=14;" edge="1" parent="1" source="4uQNx70Xx_RuzJzwthJp-55">
          <mxGeometry relative="1" as="geometry">
            <mxPoint x="550" y="60" as="targetPoint" />
          </mxGeometry>
        </mxCell>
        <mxCell id="4uQNx70Xx_RuzJzwthJp-55" value="&lt;span&gt;&lt;font face=&quot;Times New Roman&quot; style=&quot;font-size: 14px;&quot;&gt;Quản lý tổng thể toàn bộ hệ thống IoT&amp;nbsp;&lt;/font&gt;&lt;/span&gt;" style="text;html=1;strokeColor=none;fillColor=none;align=center;verticalAlign=middle;whiteSpace=wrap;rounded=0;" vertex="1" parent="1">
          <mxGeometry x="590" y="20" width="120" height="80" as="geometry" />
        </mxCell>
        <mxCell id="4uQNx70Xx_RuzJzwthJp-59" value="" style="edgeStyle=orthogonalEdgeStyle;rounded=0;orthogonalLoop=1;jettySize=auto;html=1;fontFamily=Times New Roman;fontSize=14;entryX=1;entryY=0.438;entryDx=0;entryDy=0;entryPerimeter=0;" edge="1" parent="1" source="4uQNx70Xx_RuzJzwthJp-58" target="4uQNx70Xx_RuzJzwthJp-19">
          <mxGeometry relative="1" as="geometry" />
        </mxCell>
        <mxCell id="4uQNx70Xx_RuzJzwthJp-58" value="&lt;font style=&quot;font-size: 14px;&quot; face=&quot;Times New Roman&quot;&gt;Xử lý thông tin từ lớp mạng truyền lên&lt;/font&gt;" style="text;html=1;strokeColor=none;fillColor=none;align=center;verticalAlign=middle;whiteSpace=wrap;rounded=0;" vertex="1" parent="1">
          <mxGeometry x="590" y="200" width="120" height="70" as="geometry" />
        </mxCell>
        <mxCell id="4uQNx70Xx_RuzJzwthJp-61" value="&lt;font style=&quot;font-size: 14px;&quot; face=&quot;Times New Roman&quot;&gt;Tạo môi trường truyền, chuẩn giao thức truyền, bảo mật đường truyền&lt;/font&gt;" style="text;html=1;strokeColor=none;fillColor=none;align=center;verticalAlign=middle;whiteSpace=wrap;rounded=0;" vertex="1" parent="1">
          <mxGeometry x="590" y="295" width="120" height="70" as="geometry" />
        </mxCell>
        <mxCell id="4uQNx70Xx_RuzJzwthJp-62" value="" style="edgeStyle=orthogonalEdgeStyle;rounded=0;orthogonalLoop=1;jettySize=auto;html=1;fontFamily=Times New Roman;fontSize=14;entryX=1;entryY=0.438;entryDx=0;entryDy=0;entryPerimeter=0;" edge="1" source="4uQNx70Xx_RuzJzwthJp-61" parent="1">
          <mxGeometry relative="1" as="geometry">
            <mxPoint x="550" y="330.03999999999996" as="targetPoint" />
          </mxGeometry>
        </mxCell>
        <mxCell id="4uQNx70Xx_RuzJzwthJp-63" value="" style="edgeStyle=orthogonalEdgeStyle;rounded=0;orthogonalLoop=1;jettySize=auto;html=1;fontFamily=Times New Roman;fontSize=14;entryX=1;entryY=0.438;entryDx=0;entryDy=0;entryPerimeter=0;" edge="1" source="4uQNx70Xx_RuzJzwthJp-64" parent="1">
          <mxGeometry relative="1" as="geometry">
            <mxPoint x="550" y="426.53999999999996" as="targetPoint" />
          </mxGeometry>
        </mxCell>
        <mxCell id="4uQNx70Xx_RuzJzwthJp-64" value="&lt;font style=&quot;font-size: 14px;&quot; face=&quot;Times New Roman&quot;&gt;Gồm các thiết bị cảm biến, thiết bị đầu cuối trong IoT&lt;/font&gt;" style="text;html=1;strokeColor=none;fillColor=none;align=center;verticalAlign=middle;whiteSpace=wrap;rounded=0;" vertex="1" parent="1">
          <mxGeometry x="590" y="391.5" width="120" height="70" as="geometry" />
        </mxCell>
      </root>
    </mxGraphModel>
  </diagram>
</mxfile>
